<svg xmlns="http://www.w3.org/2000/svg" width="32" height="32" viewBox="0 0 32 32"><path d="M3.5 19.8c0 2.7 1 5.3 2.9 7.4s4.3 3.2 7.4 3.2 5.4-1.1 7.4-3.2c1.9-2.1 2.9-4.5 2.9-7.4 0-1.4-.3-2.9-.8-4.2-.8.5-1.6.8-2.4 1 .5 1 .6 2.1.6 3.2 0 1.4-.3 2.7-1 4-.6 1.3-1.6 2.2-2.9 2.9-1.1.6-2.4 1-3.8 1s-2.7-.3-3.8-1-2.1-1.6-2.7-2.9c-.6-1.3-1.1-2.6-1.1-4 0-2.2.8-4.2 2.2-5.8 1.6-1.6 3.4-2.4 5.4-2.4 1 0 1.9.2 2.7.5 0-.8.3-1.6.8-2.4-1.1-.3-2.2-.6-3.5-.6-3 0-5.6 1.1-7.5 3.4-2 2-2.8 4.4-2.8 7.3zm8 7.2l1.6.2c1.4-1 2.6-1.9 3.5-3 1-1.1 1.6-2.4 2.1-3.5s.6-2.4 1-3.5c.2-.8.2-1.6.2-2.2v-1.1c-.2-1.1-.2-1.9-.3-2.9-.2-1-.3-1.4-.5-1.9l-.5-1c-.5-1.3-.8-2.4-1.3-3.4s-.6-1.6-1-1.9l-.3-.6c.8.3 1.3.8 1.8 1.4.5.5.6 1.1.8 1.4 0 .3.2.8.2 1.1v.2c0 .5 0 .8-.2 1l-.2.3c0 1.1.2 2.2.2 3.2s0 1.9-.2 2.9c-.2 1.9-.5 3.5-.8 4.8-.5 1.3-.8 2.4-1.4 3.5-.5 1-1.1 1.9-1.6 2.4s-1.1 1.1-1.6 1.4c-.5.3-.8.6-1.1.8l-.4.4zm7.8-18.2c0-.8.3-1.5.7-1.8l.5-.6c.2-.3.6-.5 1.1-.8.5-.2 1-.5 1.4-.5l.5-.3c.6-.2 1.3-.5 1.9-1s1-1 1.3-1.4l.3-.7c.8 1.1 1.3 2.2 1.4 3.7 0 .6.2 1.1.2 1.6 0 .6 0 1.3-.2 1.8l-.3 1.2c-.2.6-.5 1.1-1 1.8L26 12.9l-.5.2c-.6.3-1.3.6-1.9.6l-3-1.4c1.1-.6 2.1-1.3 2.9-1.9.8-.6 1.4-1.1 1.8-1.6.3-.5.6-1 1-1.3l.5-1v-.3c-.3.8-.8 1.4-1.4 2.1-.6.6-1.1 1.1-1.8 1.4-.6.3-1.1.6-1.8 1-.5.3-1 .5-1.3.5l-.5.1c-.5-.8-.6-1.6-.6-2.2-.2-.2-.2-.2-.1-.3z"/></svg>