<svg xmlns="http://www.w3.org/2000/svg" width="32" height="32" viewBox="0 0 32 32"><path d="M30.9 1.1C30.2.5 29.3 0 28.3 0H3.7c-1 0-1.9.5-2.6 1.1S0 2.7 0 3.7v24.6c0 1 .3 1.9 1.1 2.6.7.6 1.6 1.1 2.6 1.1h24.6c1 0 1.9-.3 2.6-1.1.6-.6 1.1-1.6 1.1-2.6V3.7c0-1-.3-1.9-1.1-2.6zm-20.8 25c-.6.6-1.3.8-2.1.8s-1.4-.3-2.1-.8c-.5-.5-.8-1.3-.8-2.1s.3-1.4.8-2.1c.6-.6 1.3-.8 2.1-.8s1.4.3 2.1.8c.6.6.8 1.3.8 2.1s-.2 1.6-.8 2.1zm8.9.9l-4.6-.2v-.5c0-2.4-.8-4.3-2.4-6.1-1.6-1.8-3.5-2.6-5.9-2.7l.3-4.8c2.4.2 4.5.8 6.4 2.1s3.5 2.9 4.6 5c1.1 2.1 1.8 4.2 1.8 6.6 0 .2 0 .5-.2.6zm8.2 0l-4.6-.2v-.5c0-3-.8-5.9-2.2-8.5-1.4-2.6-3.4-4.6-5.9-6.2S9.1 9.3 6.1 9.3l.2-4.6c2.9 0 5.6.6 8.2 1.9 2.6 1.1 4.8 2.7 6.7 4.6s3.4 4.2 4.5 6.9c1.1 2.6 1.6 5.4 1.6 8.3-.1 0-.1.6-.1.6z"/></svg>