<svg xmlns="http://www.w3.org/2000/svg" width="32" height="32" viewBox="0 0 32 32"><path d="M24.3 20.8c-.3 0-.5.2-.5.3-.2.3-.2.6-.2 1.1v.3H25v-.3c0-.5 0-.8-.2-1 0-.2-.2-.4-.5-.4zM19 21c-.3 0-.6.5-.8 1.3v3.2c.2.6.3 1 .6 1s.6-.3.6-1.1v-3.2c.1-.9 0-1.2-.4-1.2z"/><path d="M24.6 14.1H7.4C5 14.1 3 16 3 18.4v8.5c0 2.4 1.9 4.3 4.3 4.3h17.3c2.4 0 4.3-1.9 4.3-4.3v-8.5c.1-2.4-1.9-4.3-4.3-4.3zm-13.9 4.6H9v9.1H7.4v-9.1H5.6V17h5.1v1.7zm4.8 9h-1.4v-.8c-.3.6-.8 1-1.3 1-1 0-1.4-.6-1.4-1.9v-6.4h1.4v6.2c.2.3.3.5.5.5.3 0 .5-.2.6-.5 0-.2.2-.5.2-1v-5.3h1.4v8.2zm5.5-1.3c-.3 1-.8 1.6-1.4 1.6s-1.1-.3-1.3-1.1v.8h-1.4V16.8h1.4v3.4c.3-.6.6-1 1.3-1 .8 0 1.3.5 1.4 1.6.2.5.2 1.4.2 2.7-.1 1.5-.1 2.4-.2 2.9zm5.4-2.4h-2.9v1.8c.2.5.3.8.6.8.5 0 .8-.5.8-1.6h1.4v.3c0 1-.2 1.6-.5 2.1s-1 .6-1.6.6c-.8 0-1.3-.3-1.6-.8-.3-.5-.5-1-.5-1.8v-3.5c0-.6.2-1.1.5-1.6.3-.6 1-.8 1.8-.8s1.3.3 1.8 1c.3.5.5 1.4.5 3v.5h-.3zM9.6 11.7V7L7.4.8h1.8L10.4 5 11.7.8h1.8L11.2 7v4.6H9.6zm4.3-4c0-1.4.2-2.4.3-3 .3-1 1-1.3 1.9-1.3s1.6.5 1.9 1.3c.2.6.3 1.6.3 3s-.2 2.4-.3 3c-.3.8-1 1.3-1.9 1.3s-1.6-.5-1.9-1.3c-.3-.6-.3-1.7-.3-3zm1.5 0v1.6c0 .8.3 1.1.6 1.1s.6-.3.6-1V5.8c0-.6-.2-1-.5-1-.5 0-.6.2-.8.8.1 0 .1 2.1.1 2.1zm8.1-4.2v8.2h-1.4v-.8c-.3.6-.8 1-1.3 1-1 0-1.4-.6-1.4-1.9V3.5h1.4v6.4c.2.3.3.5.5.5.3 0 .5-.2.6-.5 0-.2.2-.5.2-1V3.5h1.4z"/></svg>