<svg xmlns="http://www.w3.org/2000/svg" width="32" height="32" viewBox="0 0 32 32">

    <!-- Minifiation TEST -->

    <path d="M16.7 2.6C9.3 2.6 5.5 8 5.5 12.3c0 2.7 1 5.1 3.2 6.1.3.2.6 0 .8-.5 0-.3.2-1.1.3-1.4.1-.5.1-.5-.2-.8-.8-.8-1.1-1.8-1.1-3 0-4 3-7.5 7.7-7.5 4.2 0 6.6 2.6 6.6 6.1 0 4.5-2.1 8.3-5 8.3-1.6 0-2.9-1.4-2.4-3 .5-1.9 1.4-4 1.4-5.6 0-1.3-.6-2.4-2.1-2.4-1.9-.2-3.2 1.6-3.2 4 0 1.4.5 2.4.5 2.4s-1.8 7.2-2.1 8.5c-.6 2.6-.2 5.6 0 5.9 0 .2.2.2.3.2.2-.2 2.1-2.7 2.7-5.1.2-.6 1.1-4.3 1.1-4.3.5 1.1 2.1 1.9 3.8 1.9 5.1 0 8.5-4.6 8.5-10.7.1-4.7-3.7-8.8-9.6-8.8z"/>
</svg>
