<svg xmlns="http://www.w3.org/2000/svg" width="32" height="32" viewBox="0 0 32 32"><path d="M31.8 6.2c-1.1.5-2.4.8-3.7 1 1.3-.8 2.2-2.1 2.7-3.5-1.3.8-2.7 1.3-4.2 1.6-1-1.3-2.6-2.1-4.5-2.1-3.5 0-6.6 2.9-6.6 6.4 0 .5 0 1 .2 1.4-5.3-.1-10.1-2.7-13.3-6.7-.6 1-1 2.1-1 3.2 0 2.2 1.1 4.3 2.9 5.4-1.1 0-2.1-.3-2.9-.8v.2c0 3.2 2.2 5.8 5.3 6.4-.5.2-1.1.2-1.8.2-.5 0-.8 0-1.3-.2.8 2.6 3.2 4.5 6.1 4.5-2.2 1.8-5 2.7-8 2.7-.5 0-1.1 0-1.6-.2 2.9 2.1 6.2 3 9.9 3 12 0 18.4-9.9 18.4-18.4v-.7c1.5-1 2.5-2.1 3.4-3.4z"/></svg>