<svg xmlns="http://www.w3.org/2000/svg" width="32" height="32" viewBox="0 0 32 32"><path d="M16 4.5c3.7 0 4.2 0 5.6.2 1.4 0 2.1.3 2.6.5.6.3 1.1.5 1.6 1.1.5.5.8 1 1.1 1.6.2.5.5 1.3.5 2.6 0 1.4.2 1.9.2 5.6s0 4.2-.2 5.6c0 1.4-.3 2.1-.5 2.6-.3.6-.5 1.1-1.1 1.6-.5.5-1 .8-1.6 1.1-.5.2-1.3.5-2.6.5-1.4 0-1.9.2-5.6.2s-4.2 0-5.6-.2c-1.4 0-2.1-.3-2.6-.5-.6-.3-1.1-.5-1.6-1.1-.5-.5-.8-1-1.1-1.6-.2-.5-.5-1.3-.5-2.6 0-1.4-.2-1.9-.2-5.6s0-4.2.2-5.6c0-1.5.4-2.2.5-2.7.3-.6.5-1.1 1.1-1.6.5-.5 1-.8 1.6-1.1.5-.1 1.3-.5 2.6-.5 1.4-.1 1.9-.1 5.6-.1m0-2.6c-3.8 0-4.3 0-5.8.2-1.4 0-2.6.3-3.4.6-.9.3-1.7.8-2.5 1.6S3 5.9 2.7 6.9c-.3.8-.6 1.9-.6 3.4s-.2 1.9-.2 5.7 0 4.3.2 5.8c0 1.4.3 2.6.6 3.4.3 1 .8 1.8 1.6 2.6s1.6 1.3 2.6 1.6 1.9.6 3.4.6 1.9.2 5.8.2 4.3 0 5.8-.2c1.4 0 2.6-.3 3.4-.6 1-.3 1.8-.8 2.6-1.6s1.3-1.6 1.6-2.6c.3-1 .6-1.9.6-3.4 0-1.4.2-1.9.2-5.8s0-4.3-.2-5.8c0-1.4-.3-2.6-.6-3.4-.3-1-.8-1.8-1.6-2.6s-1.6-1.3-2.6-1.6-1.9-.6-3.4-.6c-1.6.1-2.1-.1-5.9-.1z"/><path d="M16 8.8c-4 0-7.2 3.2-7.2 7.2s3.2 7.2 7.2 7.2 7.2-3.2 7.2-7.2S20 8.8 16 8.8zm0 11.8c-2.6 0-4.6-2.1-4.6-4.6s2.1-4.6 4.6-4.6 4.6 2.1 4.6 4.6-2 4.6-4.6 4.6z"/><circle cx="23.5" cy="8.5" r="1.8"/></svg>