<svg xmlns="http://www.w3.org/2000/svg" width="32" height="32" viewBox="0 0 32 32"><path d="M20 12.7c-.4 0-.7.3-.7.7v11.1c0 .4.3.7.7.7.4 0 .7-.3.7-.7V13.4c0-.4-.3-.7-.7-.7zm-8.2 0c-.4 0-.7.3-.7.7v11.1c0 .4.3.7.7.7.4 0 .7-.3.7-.7V13.4c0-.4-.3-.7-.7-.7z"/><path d="M7.1 10.8v14.9c0 .9.3 1.7.9 2.3.6.6 1.3.9 2.2.9h11.5c.8 0 1.6-.3 2.2-.9.6-.6.9-1.4.9-2.3V10.8c1.1-.3 1.9-1.4 1.7-2.5-.2-1.2-1.1-2-2.3-2H21v-.8c0-.6-.2-1.2-.7-1.7-.5-.5-1.1-.7-1.7-.7h-5.4c-.6 0-1.2.2-1.7.7-.4.4-.7 1.1-.7 1.7v.8H7.7c-1.2 0-2.1.9-2.3 2-.1 1.1.6 2.2 1.7 2.5zm14 15.8H10.7c-.9 0-1.7-.8-1.7-1.8V11.3h13.7v13.4c0 1.1-.7 1.9-1.6 1.9zM12.4 5.5c0-.3.1-.6.3-.8s.5-.3.8-.3h4.9c.3 0 .6.1.8.3.2.2.3.5.3.8v.7h-7v-.7zM8.5 7.6h14.8c.5 0 1 .4 1 1s-.4 1-1 1H8.5c-.5 0-1-.4-1-1s.5-1 1-1z"/><path d="M15.9 12.7c-.4 0-.7.3-.7.7v11.1c0 .4.3.7.7.7.4 0 .7-.3.7-.7V13.4c0-.4-.3-.7-.7-.7z"/></svg>